<mxfile host="app.diagrams.net" agent="Mozilla/5.0 (Windows NT 10.0; Win64; x64) AppleWebKit/537.36 (KHTML, like Gecko) Chrome/135.0.0.0 Safari/537.36" version="26.2.14">
  <diagram id="C5RBs43oDa-KdzZeNtuy" name="Page-1">
    <mxGraphModel dx="590" dy="516" grid="1" gridSize="10" guides="1" tooltips="1" connect="1" arrows="1" fold="1" page="1" pageScale="1" pageWidth="827" pageHeight="1169" math="0" shadow="0">
      <root>
        <mxCell id="WIyWlLk6GJQsqaUBKTNV-0" />
        <mxCell id="WIyWlLk6GJQsqaUBKTNV-1" parent="WIyWlLk6GJQsqaUBKTNV-0" />
        <mxCell id="HvuJs7WOY1dfeLT5cr4M-6" style="edgeStyle=orthogonalEdgeStyle;rounded=0;orthogonalLoop=1;jettySize=auto;html=1;exitX=0.5;exitY=1;exitDx=0;exitDy=0;entryX=0.5;entryY=0;entryDx=0;entryDy=0;fontFamily=宋体;fontSize=14;fontColor=default;" parent="WIyWlLk6GJQsqaUBKTNV-1" source="WIyWlLk6GJQsqaUBKTNV-3" target="HvuJs7WOY1dfeLT5cr4M-1" edge="1">
          <mxGeometry relative="1" as="geometry" />
        </mxCell>
        <mxCell id="WIyWlLk6GJQsqaUBKTNV-3" value="开始" style="rounded=1;whiteSpace=wrap;html=1;fontSize=14;glass=0;strokeWidth=1;shadow=0;arcSize=47;fontFamily=宋体;" parent="WIyWlLk6GJQsqaUBKTNV-1" vertex="1">
          <mxGeometry x="180" y="90" width="80" height="30" as="geometry" />
        </mxCell>
        <mxCell id="zRHGxVwGzajfTeHZr5Ch-6" style="edgeStyle=orthogonalEdgeStyle;rounded=0;orthogonalLoop=1;jettySize=auto;html=1;exitX=0.5;exitY=1;exitDx=0;exitDy=0;entryX=0.5;entryY=0;entryDx=0;entryDy=0;" edge="1" parent="WIyWlLk6GJQsqaUBKTNV-1" source="HvuJs7WOY1dfeLT5cr4M-1" target="HvuJs7WOY1dfeLT5cr4M-16">
          <mxGeometry relative="1" as="geometry" />
        </mxCell>
        <mxCell id="HvuJs7WOY1dfeLT5cr4M-1" value="订单处于&lt;div&gt;“进行中”状态&lt;/div&gt;" style="rounded=0;whiteSpace=wrap;html=1;fontFamily=宋体;fontSize=14;" parent="WIyWlLk6GJQsqaUBKTNV-1" vertex="1">
          <mxGeometry x="165" y="140" width="110" height="40" as="geometry" />
        </mxCell>
        <mxCell id="zRHGxVwGzajfTeHZr5Ch-7" style="edgeStyle=orthogonalEdgeStyle;rounded=0;orthogonalLoop=1;jettySize=auto;html=1;exitX=0.5;exitY=1;exitDx=0;exitDy=0;entryX=0.5;entryY=0;entryDx=0;entryDy=0;" edge="1" parent="WIyWlLk6GJQsqaUBKTNV-1" source="HvuJs7WOY1dfeLT5cr4M-16" target="zRHGxVwGzajfTeHZr5Ch-0">
          <mxGeometry relative="1" as="geometry" />
        </mxCell>
        <mxCell id="zRHGxVwGzajfTeHZr5Ch-13" style="edgeStyle=orthogonalEdgeStyle;rounded=0;orthogonalLoop=1;jettySize=auto;html=1;exitX=0;exitY=0.5;exitDx=0;exitDy=0;entryX=0;entryY=0.5;entryDx=0;entryDy=0;" edge="1" parent="WIyWlLk6GJQsqaUBKTNV-1" source="HvuJs7WOY1dfeLT5cr4M-16" target="zRHGxVwGzajfTeHZr5Ch-1">
          <mxGeometry relative="1" as="geometry">
            <Array as="points">
              <mxPoint x="120" y="230" />
              <mxPoint x="120" y="380" />
            </Array>
          </mxGeometry>
        </mxCell>
        <mxCell id="HvuJs7WOY1dfeLT5cr4M-16" value="&lt;font face=&quot;宋体&quot;&gt;&lt;span style=&quot;font-size: 14px;&quot;&gt;用户提前&lt;/span&gt;&lt;/font&gt;&lt;div&gt;&lt;font face=&quot;宋体&quot;&gt;&lt;span style=&quot;font-size: 14px;&quot;&gt;结束订单？&lt;/span&gt;&lt;/font&gt;&lt;/div&gt;" style="rhombus;whiteSpace=wrap;html=1;" parent="WIyWlLk6GJQsqaUBKTNV-1" vertex="1">
          <mxGeometry x="155" y="200" width="130" height="60" as="geometry" />
        </mxCell>
        <mxCell id="zRHGxVwGzajfTeHZr5Ch-8" style="edgeStyle=orthogonalEdgeStyle;rounded=0;orthogonalLoop=1;jettySize=auto;html=1;exitX=0.5;exitY=1;exitDx=0;exitDy=0;entryX=0.5;entryY=0;entryDx=0;entryDy=0;" edge="1" parent="WIyWlLk6GJQsqaUBKTNV-1" source="zRHGxVwGzajfTeHZr5Ch-0" target="zRHGxVwGzajfTeHZr5Ch-1">
          <mxGeometry relative="1" as="geometry" />
        </mxCell>
        <mxCell id="zRHGxVwGzajfTeHZr5Ch-22" style="edgeStyle=orthogonalEdgeStyle;rounded=0;orthogonalLoop=1;jettySize=auto;html=1;exitX=1;exitY=0.5;exitDx=0;exitDy=0;" edge="1" parent="WIyWlLk6GJQsqaUBKTNV-1" source="zRHGxVwGzajfTeHZr5Ch-0">
          <mxGeometry relative="1" as="geometry">
            <mxPoint x="340" y="310.19047619047615" as="targetPoint" />
          </mxGeometry>
        </mxCell>
        <mxCell id="zRHGxVwGzajfTeHZr5Ch-0" value="&lt;font face=&quot;宋体&quot;&gt;&lt;span style=&quot;font-size: 14px;&quot;&gt;预计完成时间&lt;/span&gt;&lt;/font&gt;&lt;div&gt;&lt;font face=&quot;宋体&quot;&gt;&lt;span style=&quot;font-size: 14px;&quot;&gt;小于当前时间？&lt;/span&gt;&lt;/font&gt;&lt;/div&gt;" style="rhombus;whiteSpace=wrap;html=1;" vertex="1" parent="WIyWlLk6GJQsqaUBKTNV-1">
          <mxGeometry x="138" y="280" width="164" height="60" as="geometry" />
        </mxCell>
        <mxCell id="zRHGxVwGzajfTeHZr5Ch-36" style="edgeStyle=orthogonalEdgeStyle;rounded=0;orthogonalLoop=1;jettySize=auto;html=1;exitX=0.5;exitY=1;exitDx=0;exitDy=0;" edge="1" parent="WIyWlLk6GJQsqaUBKTNV-1" source="zRHGxVwGzajfTeHZr5Ch-1">
          <mxGeometry relative="1" as="geometry">
            <mxPoint x="479.9999999999999" y="130" as="targetPoint" />
            <Array as="points">
              <mxPoint x="220" y="420" />
              <mxPoint x="400" y="420" />
              <mxPoint x="400" y="110" />
              <mxPoint x="481" y="110" />
              <mxPoint x="481" y="120" />
              <mxPoint x="480" y="120" />
            </Array>
          </mxGeometry>
        </mxCell>
        <mxCell id="zRHGxVwGzajfTeHZr5Ch-1" value="设置关联机器&lt;div&gt;状态为“空闲”&lt;/div&gt;" style="rounded=0;whiteSpace=wrap;html=1;fontFamily=宋体;fontSize=14;" vertex="1" parent="WIyWlLk6GJQsqaUBKTNV-1">
          <mxGeometry x="160" y="360" width="120" height="40" as="geometry" />
        </mxCell>
        <mxCell id="zRHGxVwGzajfTeHZr5Ch-10" style="edgeStyle=orthogonalEdgeStyle;rounded=0;orthogonalLoop=1;jettySize=auto;html=1;exitX=0.5;exitY=1;exitDx=0;exitDy=0;entryX=0.5;entryY=0;entryDx=0;entryDy=0;" edge="1" parent="WIyWlLk6GJQsqaUBKTNV-1" source="zRHGxVwGzajfTeHZr5Ch-2" target="zRHGxVwGzajfTeHZr5Ch-3">
          <mxGeometry relative="1" as="geometry" />
        </mxCell>
        <mxCell id="zRHGxVwGzajfTeHZr5Ch-2" value="设置订单完成时间为当前，状态为&lt;span style=&quot;background-color: transparent; color: light-dark(rgb(0, 0, 0), rgb(255, 255, 255));&quot;&gt;已完成&lt;/span&gt;" style="rounded=0;whiteSpace=wrap;html=1;fontFamily=宋体;fontSize=14;" vertex="1" parent="WIyWlLk6GJQsqaUBKTNV-1">
          <mxGeometry x="414" y="132" width="130" height="60" as="geometry" />
        </mxCell>
        <mxCell id="zRHGxVwGzajfTeHZr5Ch-25" style="edgeStyle=orthogonalEdgeStyle;rounded=0;orthogonalLoop=1;jettySize=auto;html=1;exitX=0.5;exitY=1;exitDx=0;exitDy=0;entryX=0.5;entryY=0;entryDx=0;entryDy=0;" edge="1" parent="WIyWlLk6GJQsqaUBKTNV-1" source="zRHGxVwGzajfTeHZr5Ch-3" target="zRHGxVwGzajfTeHZr5Ch-4">
          <mxGeometry relative="1" as="geometry" />
        </mxCell>
        <mxCell id="zRHGxVwGzajfTeHZr5Ch-3" value="增加用户积分" style="rounded=0;whiteSpace=wrap;html=1;fontFamily=宋体;fontSize=14;" vertex="1" parent="WIyWlLk6GJQsqaUBKTNV-1">
          <mxGeometry x="419" y="205" width="120" height="35" as="geometry" />
        </mxCell>
        <mxCell id="zRHGxVwGzajfTeHZr5Ch-15" style="edgeStyle=orthogonalEdgeStyle;rounded=0;orthogonalLoop=1;jettySize=auto;html=1;exitX=0.5;exitY=1;exitDx=0;exitDy=0;entryX=0.5;entryY=0;entryDx=0;entryDy=0;" edge="1" parent="WIyWlLk6GJQsqaUBKTNV-1" source="zRHGxVwGzajfTeHZr5Ch-4" target="zRHGxVwGzajfTeHZr5Ch-14">
          <mxGeometry relative="1" as="geometry" />
        </mxCell>
        <mxCell id="zRHGxVwGzajfTeHZr5Ch-4" value="通知机器空闲&lt;div&gt;订阅用户&lt;/div&gt;" style="rounded=0;whiteSpace=wrap;html=1;fontFamily=宋体;fontSize=14;" vertex="1" parent="WIyWlLk6GJQsqaUBKTNV-1">
          <mxGeometry x="419" y="262" width="120" height="40" as="geometry" />
        </mxCell>
        <mxCell id="zRHGxVwGzajfTeHZr5Ch-31" style="edgeStyle=orthogonalEdgeStyle;rounded=0;orthogonalLoop=1;jettySize=auto;html=1;exitX=1;exitY=0.5;exitDx=0;exitDy=0;entryX=0;entryY=0.5;entryDx=0;entryDy=0;" edge="1" parent="WIyWlLk6GJQsqaUBKTNV-1" source="zRHGxVwGzajfTeHZr5Ch-14" target="zRHGxVwGzajfTeHZr5Ch-16">
          <mxGeometry relative="1" as="geometry" />
        </mxCell>
        <mxCell id="zRHGxVwGzajfTeHZr5Ch-32" style="edgeStyle=orthogonalEdgeStyle;rounded=0;orthogonalLoop=1;jettySize=auto;html=1;exitX=0.5;exitY=1;exitDx=0;exitDy=0;entryX=0;entryY=0.75;entryDx=0;entryDy=0;" edge="1" parent="WIyWlLk6GJQsqaUBKTNV-1" source="zRHGxVwGzajfTeHZr5Ch-14" target="zRHGxVwGzajfTeHZr5Ch-30">
          <mxGeometry relative="1" as="geometry" />
        </mxCell>
        <mxCell id="zRHGxVwGzajfTeHZr5Ch-14" value="&lt;font face=&quot;宋体&quot;&gt;&lt;span style=&quot;font-size: 14px;&quot;&gt;用户提前&lt;/span&gt;&lt;/font&gt;&lt;div&gt;&lt;font face=&quot;宋体&quot;&gt;&lt;span style=&quot;font-size: 14px;&quot;&gt;结束订单？&lt;/span&gt;&lt;/font&gt;&lt;/div&gt;" style="rhombus;whiteSpace=wrap;html=1;" vertex="1" parent="WIyWlLk6GJQsqaUBKTNV-1">
          <mxGeometry x="414" y="320" width="130" height="60" as="geometry" />
        </mxCell>
        <mxCell id="zRHGxVwGzajfTeHZr5Ch-33" style="edgeStyle=orthogonalEdgeStyle;rounded=0;orthogonalLoop=1;jettySize=auto;html=1;exitX=0.5;exitY=1;exitDx=0;exitDy=0;entryX=1;entryY=0.75;entryDx=0;entryDy=0;" edge="1" parent="WIyWlLk6GJQsqaUBKTNV-1" source="zRHGxVwGzajfTeHZr5Ch-16" target="zRHGxVwGzajfTeHZr5Ch-30">
          <mxGeometry relative="1" as="geometry" />
        </mxCell>
        <mxCell id="zRHGxVwGzajfTeHZr5Ch-16" value="通知订单用户" style="rounded=0;whiteSpace=wrap;html=1;fontFamily=宋体;fontSize=14;" vertex="1" parent="WIyWlLk6GJQsqaUBKTNV-1">
          <mxGeometry x="589" y="330" width="110" height="40" as="geometry" />
        </mxCell>
        <mxCell id="zRHGxVwGzajfTeHZr5Ch-17" value="是" style="text;html=1;align=center;verticalAlign=middle;whiteSpace=wrap;rounded=0;fontFamily=宋体;" vertex="1" parent="WIyWlLk6GJQsqaUBKTNV-1">
          <mxGeometry x="130" y="230" width="25" height="30" as="geometry" />
        </mxCell>
        <mxCell id="zRHGxVwGzajfTeHZr5Ch-18" value="否" style="text;html=1;align=center;verticalAlign=middle;whiteSpace=wrap;rounded=0;fontFamily=宋体;" vertex="1" parent="WIyWlLk6GJQsqaUBKTNV-1">
          <mxGeometry x="190" y="250" width="25" height="30" as="geometry" />
        </mxCell>
        <mxCell id="zRHGxVwGzajfTeHZr5Ch-20" value="是" style="text;html=1;align=center;verticalAlign=middle;whiteSpace=wrap;rounded=0;fontFamily=宋体;" vertex="1" parent="WIyWlLk6GJQsqaUBKTNV-1">
          <mxGeometry x="451.5" y="380" width="20" height="20" as="geometry" />
        </mxCell>
        <mxCell id="zRHGxVwGzajfTeHZr5Ch-24" style="edgeStyle=orthogonalEdgeStyle;rounded=0;orthogonalLoop=1;jettySize=auto;html=1;exitX=1;exitY=0.5;exitDx=0;exitDy=0;entryX=1;entryY=0.5;entryDx=0;entryDy=0;" edge="1" parent="WIyWlLk6GJQsqaUBKTNV-1" source="zRHGxVwGzajfTeHZr5Ch-23" target="zRHGxVwGzajfTeHZr5Ch-18">
          <mxGeometry relative="1" as="geometry">
            <Array as="points">
              <mxPoint x="390" y="310" />
              <mxPoint x="390" y="265" />
            </Array>
          </mxGeometry>
        </mxCell>
        <mxCell id="zRHGxVwGzajfTeHZr5Ch-23" value="等待10s" style="rounded=0;whiteSpace=wrap;html=1;fontFamily=宋体;fontSize=14;" vertex="1" parent="WIyWlLk6GJQsqaUBKTNV-1">
          <mxGeometry x="320" y="290" width="60" height="40" as="geometry" />
        </mxCell>
        <mxCell id="zRHGxVwGzajfTeHZr5Ch-30" value="结束" style="rounded=1;whiteSpace=wrap;html=1;fontSize=14;glass=0;strokeWidth=1;shadow=0;arcSize=47;fontFamily=宋体;" vertex="1" parent="WIyWlLk6GJQsqaUBKTNV-1">
          <mxGeometry x="499" y="400" width="80" height="30" as="geometry" />
        </mxCell>
        <mxCell id="zRHGxVwGzajfTeHZr5Ch-34" value="否" style="text;html=1;align=center;verticalAlign=middle;whiteSpace=wrap;rounded=0;fontFamily=宋体;" vertex="1" parent="WIyWlLk6GJQsqaUBKTNV-1">
          <mxGeometry x="534" y="350" width="20" height="20" as="geometry" />
        </mxCell>
      </root>
    </mxGraphModel>
  </diagram>
</mxfile>
